<?xml version="1.0" encoding="utf-8"?>
<svg viewBox="0 0 500 500" xmlns="http://www.w3.org/2000/svg">
  <path d="M25.783 123.306H0V0h25.783v123.306zM89.675 123.306H53.808V0h35.867c22.476 0 39.931 5.507 51.648 16.52C152.56 27.057 158.06 41.9 158.06 60.816c0 18.915-5.977 34.239-17.694 45.013-11.955 11.732-29.171 17.478-50.691 17.478zm-10.282-23.224h13.39c26.063 0 38.975-12.69 38.975-38.788 0-11.493-3.108-20.83-9.325-27.295-6.934-7.183-17.216-10.774-30.846-10.774H79.632v76.857h-.24zM256.708 123.306H179.36V0h77.35v23.225h-51.805v26.337h51.804v22.506h-51.804v28.014h51.804v23.224z" transform="matrix(1, 0, 0, 1, -21.413059, 110.999995)"/>
  <path d="M454.243 278c-16.27 0-30.147-4.99-41.154-15.21-12.92-11.645-19.62-27.805-19.62-48.006 0-18.3 5.504-33.509 16.51-45.392 11.006-11.882 25.84-18.061 44.025-18.061 18.423 0 33.257 5.941 44.263 18.061 10.767 11.883 16.27 27.093 16.27 45.63 0 18.061-5.503 33.271-16.509 45.154C487.261 271.821 472.427 278 454.243 278zm-.24-104.33c-10.527 0-18.423 3.565-24.404 10.694-5.982 7.368-9.092 17.35-9.092 29.945 0 12.595 3.11 22.577 9.33 29.944 5.982 7.13 14.117 10.695 24.645 10.695 10.528 0 18.423-3.328 24.166-10.457 5.981-7.13 8.853-17.111 8.853-29.707 0-12.595-3.11-22.815-9.332-30.182-5.981-7.367-13.877-10.932-24.165-10.932zM607.342 275.758h-71.506V152.452h25.504v100.081h46.24v23.225zM675.224 276.879h-16.672L607.58 152.69h27.391l25.962 64.005c3.097 7.165 5.479 13.374 7.384 18.867 2.382-6.448 5.002-12.896 7.622-19.105l27.391-64.005h26.439l-54.545 124.427zM822.811 275.758h-77.348V152.452h77.348v23.224h-51.725v26.338h51.725v22.506h-51.725v28.013h51.725zM179.36 275.758V152.452h77.348v23.224h-51.725v26.338h51.725v22.506h-51.725v28.013h51.725v23.225zM945 275.758h-29.88l-.717-1.197c-10.756-17.478-17.688-28.253-20.079-31.844-6.454-9.577-9.322-12.211-10.517-12.93H873.05v45.971h-25.577V152.452h37.05c14.582 0 26.056 3.591 33.705 10.774 6.693 6.465 10.279 15.084 10.279 25.38 0 14.844-7.172 25.619-21.036 31.604 4.064 4.789 13.147 17.479 35.378 51.717l2.151 3.831zm-71.95-67.998h12.191c5.498 0 9.561-1.437 12.669-4.55 3.107-3.112 4.542-6.943 4.542-11.731 0-10.775-5.737-15.803-18.406-15.803H873.05v32.084z" transform="matrix(1, 0, 0, 1, -21.413059, 110.999995)"/>
  <path d="M 300.107 111 L 320.539 111 C 322.171 111.002 323.634 112.008 324.22 113.532 L 369.317 230.12 C 369.496 230.58 369.587 231.069 369.587 231.562 C 369.587 233.757 367.819 235.537 365.639 235.537 L 345.953 235.537 C 344.321 235.534 342.859 234.527 342.274 233.004 L 310.324 150.408 L 278.373 233.004 C 277.788 234.528 276.325 235.534 274.693 235.537 L 255.008 235.537 C 252.828 235.537 251.06 233.757 251.06 231.562 C 251.06 231.069 251.151 230.58 251.329 230.12 L 296.429 113.532 C 297.014 112.009 298.476 111.003 300.107 111 Z"/>
  <path d="M 316.067 387 L 295.635 387 C 294.003 386.998 292.541 385.991 291.955 384.468 L 246.857 267.88 C 246.678 267.42 246.587 266.931 246.587 266.438 C 246.587 264.243 248.355 262.463 250.535 262.463 L 270.221 262.463 C 271.853 262.466 273.315 263.473 273.9 264.996 L 305.85 347.592 L 337.801 264.996 C 338.386 263.472 339.849 262.466 341.481 262.463 L 361.166 262.463 C 363.346 262.463 365.114 264.243 365.114 266.438 C 365.114 266.931 365.023 267.42 364.845 267.88 L 319.745 384.468 C 319.16 385.991 317.698 386.997 316.067 387 Z"/>
</svg>